<svg width="54" height="54" viewBox="0 0 54 54" fill="none" xmlns="http://www.w3.org/2000/svg">
<path d="M27 26.9438C24.525 26.9438 22.5 26.1563 20.925 24.5813C19.35 23.0063 18.5625 20.9813 18.5625 18.5063C18.5625 16.0313 19.35 14.0063 20.925 12.4313C22.5 10.8563 24.525 10.0688 27 10.0688C29.475 10.0688 31.5 10.8563 33.075 12.4313C34.65 14.0063 35.4375 16.0313 35.4375 18.5063C35.4375 20.9813 34.65 23.0063 33.075 24.5813C31.5 26.1563 29.475 26.9438 27 26.9438ZM9 45.0001V39.7126C9 38.2876 9.35625 37.0688 10.0688 36.0563C10.7812 35.0438 11.7 34.2751 12.825 33.7501C15.3375 32.6251 17.7469 31.7813 20.0531 31.2188C22.3594 30.6563 24.675 30.3751 27 30.3751C29.325 30.3751 31.6312 30.6657 33.9187 31.247C36.2062 31.8282 38.6048 32.6662 41.1143 33.761C42.2881 34.2907 43.2292 35.0588 43.9375 36.0653C44.6458 37.0718 45 38.2876 45 39.7126V45.0001H9ZM12.375 41.6251H41.625V39.7126C41.625 39.1126 41.4469 38.5407 41.0906 37.997C40.7344 37.4532 40.2937 37.0501 39.7687 36.7876C37.3687 35.6251 35.175 34.8282 33.1875 34.397C31.2 33.9657 29.1375 33.7501 27 33.7501C24.8625 33.7501 22.7812 33.9657 20.7562 34.397C18.7312 34.8282 16.5375 35.6251 14.175 36.7876C13.65 37.0501 13.2188 37.4532 12.8812 37.997C12.5437 38.5407 12.375 39.1126 12.375 39.7126V41.6251ZM27 23.5688C28.4625 23.5688 29.6719 23.0907 30.6281 22.1345C31.5844 21.1782 32.0625 19.9688 32.0625 18.5063C32.0625 17.0438 31.5844 15.8345 30.6281 14.8782C29.6719 13.922 28.4625 13.4438 27 13.4438C25.5375 13.4438 24.3281 13.922 23.3719 14.8782C22.4156 15.8345 21.9375 17.0438 21.9375 18.5063C21.9375 19.9688 22.4156 21.1782 23.3719 22.1345C24.3281 23.0907 25.5375 23.5688 27 23.5688Z" fill="#404040"/>
</svg>
