<svg width="30" height="30" viewBox="0 0 30 30" fill="none" xmlns="http://www.w3.org/2000/svg">
<path d="M30 15C30 23.2843 23.2843 30 15 30C6.71573 30 0 23.2843 0 15C0 6.71573 6.71573 0 15 0C23.2843 0 30 6.71573 30 15Z" fill="#00771A"/>
<path d="M21.624 15.581V13.2527H19.1938V11.0687H21.624V8.76099H23.9037V11.0687H26.3125V13.2527H23.9037V15.581H21.624ZM13.5624 14.3036C12.3414 14.3036 11.3115 13.8984 10.4728 13.0879C9.63399 12.2775 9.21461 11.2919 9.21461 10.1312C9.21461 8.97047 9.63285 7.99176 10.4693 7.19506C11.3058 6.39835 12.3345 6 13.5556 6C14.7766 6 15.8064 6.39758 16.6452 7.19275C17.484 7.9879 17.9033 8.97081 17.9033 10.1415C17.9033 11.2953 17.4851 12.2775 16.6486 13.0879C15.8122 13.8984 14.7834 14.3036 13.5624 14.3036ZM5.6875 22.875V19.5989C5.6875 18.9564 5.85805 18.3763 6.19915 17.8585C6.5402 17.3407 6.99335 16.9456 7.55859 16.6731C8.50489 16.206 9.48111 15.8558 10.4873 15.6223C11.4934 15.3887 12.5153 15.272 13.5529 15.272C14.6179 15.272 15.6523 15.3887 16.656 15.6223C17.6596 15.8558 18.6274 16.1992 19.5594 16.6525C20.1246 16.923 20.5778 17.3152 20.9188 17.8292C21.2599 18.3432 21.4305 18.9327 21.4305 19.5978V22.875H5.6875ZM8.61242 20.0728H18.5055V19.7019C18.5055 19.5642 18.4706 19.4419 18.4007 19.3351C18.3308 19.2284 18.2367 19.1515 18.1184 19.1044C17.4302 18.7747 16.699 18.5206 15.9247 18.342C15.1505 18.1635 14.3583 18.0742 13.5482 18.0742C12.7668 18.0742 11.9782 18.1635 11.1825 18.342C10.3867 18.5206 9.65908 18.7747 8.99954 19.1044C8.88126 19.1515 8.78716 19.2284 8.71727 19.3351C8.64737 19.4419 8.61242 19.5642 8.61242 19.7019V20.0728ZM13.5582 11.5014C13.9459 11.5014 14.2795 11.3677 14.559 11.1003C14.8386 10.8329 14.9784 10.5136 14.9784 10.1422C14.9784 9.77084 14.8389 9.45124 14.5598 9.18338C14.2807 8.91552 13.9474 8.78159 13.5597 8.78159C13.1721 8.78159 12.8385 8.91677 12.5589 9.18711C12.2793 9.45745 12.1395 9.77558 12.1395 10.1415C12.1395 10.513 12.2791 10.8326 12.5582 11.1001C12.8372 11.3676 13.1706 11.5014 13.5582 11.5014Z" fill="white"/>
</svg>
