<svg width="18" height="18" viewBox="0 0 18 18" fill="none" xmlns="http://www.w3.org/2000/svg">
<path d="M9 9.5627C8.275 9.5627 7.66563 9.31582 7.17188 8.82207C6.67813 8.32832 6.43125 7.71895 6.43125 6.99395C6.43125 6.26895 6.67813 5.65957 7.17188 5.16582C7.66563 4.67207 8.275 4.4252 9 4.4252C9.725 4.4252 10.3344 4.67207 10.8281 5.16582C11.3219 5.65957 11.5688 6.26895 11.5688 6.99395C11.5688 7.71895 11.3219 8.32832 10.8281 8.82207C10.3344 9.31582 9.725 9.5627 9 9.5627ZM9 8.4377C9.425 8.4377 9.77188 8.30332 10.0406 8.03457C10.3094 7.76582 10.4438 7.41895 10.4438 6.99395C10.4438 6.56895 10.3094 6.22207 10.0406 5.95332C9.77188 5.68457 9.425 5.5502 9 5.5502C8.575 5.5502 8.22813 5.68457 7.95938 5.95332C7.69063 6.22207 7.55625 6.56895 7.55625 6.99395C7.55625 7.41895 7.69063 7.76582 7.95938 8.03457C8.22813 8.30332 8.575 8.4377 9 8.4377ZM9 16.4814C7.25 16.0439 5.8125 15.0283 4.6875 13.4346C3.5625 11.8408 3 10.0939 3 8.19395V3.73145L9 1.48145L15 3.73145V8.19395C15 10.0939 14.4375 11.8408 13.3125 13.4346C12.1875 15.0283 10.75 16.0439 9 16.4814ZM9 2.68145L4.125 4.51895V8.19395C4.125 8.98145 4.23438 9.73457 4.45312 10.4533C4.67188 11.1721 4.98125 11.8377 5.38125 12.4502C5.95625 12.1377 6.54063 11.9033 7.13438 11.7471C7.72813 11.5908 8.35 11.5127 9 11.5127C9.65 11.5127 10.2719 11.5908 10.8656 11.7471C11.4594 11.9033 12.0438 12.1377 12.6188 12.4502C13.0188 11.8377 13.3281 11.1721 13.5469 10.4533C13.7656 9.73457 13.875 8.98145 13.875 8.19395V4.51895L9 2.68145ZM9 12.6377C8.5125 12.6377 8.025 12.7002 7.5375 12.8252C7.05 12.9502 6.56875 13.1377 6.09375 13.3877C6.49375 13.8252 6.9375 14.2096 7.425 14.5408C7.9125 14.8721 8.4375 15.1314 9 15.3189C9.5625 15.1314 10.0875 14.8721 10.575 14.5408C11.0625 14.2096 11.5063 13.8252 11.9062 13.3877C11.4313 13.1377 10.95 12.9502 10.4625 12.8252C9.975 12.7002 9.4875 12.6377 9 12.6377Z" fill="black"/>
</svg>
