<svg width="18" height="18" viewBox="0 0 18 18" fill="none" xmlns="http://www.w3.org/2000/svg">
<path d="M9 9.56245C8.275 9.56245 7.66563 9.31558 7.17188 8.82183C6.67813 8.32808 6.43125 7.7187 6.43125 6.9937C6.43125 6.2687 6.67813 5.65933 7.17188 5.16558C7.66563 4.67183 8.275 4.42495 9 4.42495C9.725 4.42495 10.3344 4.67183 10.8281 5.16558C11.3219 5.65933 11.5688 6.2687 11.5688 6.9937C11.5688 7.7187 11.3219 8.32808 10.8281 8.82183C10.3344 9.31558 9.725 9.56245 9 9.56245ZM9 8.43745C9.425 8.43745 9.77188 8.30308 10.0406 8.03433C10.3094 7.76558 10.4438 7.4187 10.4438 6.9937C10.4438 6.5687 10.3094 6.22183 10.0406 5.95308C9.77188 5.68433 9.425 5.54995 9 5.54995C8.575 5.54995 8.22813 5.68433 7.95938 5.95308C7.69063 6.22183 7.55625 6.5687 7.55625 6.9937C7.55625 7.4187 7.69063 7.76558 7.95938 8.03433C8.22813 8.30308 8.575 8.43745 9 8.43745ZM9 16.4812C7.25 16.0437 5.8125 15.0281 4.6875 13.4343C3.5625 11.8406 3 10.0937 3 8.1937V3.7312L9 1.4812L15 3.7312V8.1937C15 10.0937 14.4375 11.8406 13.3125 13.4343C12.1875 15.0281 10.75 16.0437 9 16.4812ZM9 2.6812L4.125 4.5187V8.1937C4.125 8.9812 4.23438 9.73433 4.45312 10.4531C4.67188 11.1718 4.98125 11.8375 5.38125 12.45C5.95625 12.1375 6.54063 11.9031 7.13438 11.7468C7.72813 11.5906 8.35 11.5125 9 11.5125C9.65 11.5125 10.2719 11.5906 10.8656 11.7468C11.4594 11.9031 12.0438 12.1375 12.6188 12.45C13.0188 11.8375 13.3281 11.1718 13.5469 10.4531C13.7656 9.73433 13.875 8.9812 13.875 8.1937V4.5187L9 2.6812ZM9 12.6375C8.5125 12.6375 8.025 12.7 7.5375 12.825C7.05 12.95 6.56875 13.1375 6.09375 13.3875C6.49375 13.825 6.9375 14.2093 7.425 14.5406C7.9125 14.8718 8.4375 15.1312 9 15.3187C9.5625 15.1312 10.0875 14.8718 10.575 14.5406C11.0625 14.2093 11.5063 13.825 11.9062 13.3875C11.4313 13.1375 10.95 12.95 10.4625 12.825C9.975 12.7 9.4875 12.6375 9 12.6375Z" fill="white"/>
</svg>
