<svg width="16" height="16" viewBox="0 0 16 16" fill="none" xmlns="http://www.w3.org/2000/svg">
<path d="M3 12.9999H3.73333L11.6 5.14994L10.8667 4.4166L3 12.2666V12.9999ZM2 13.9999V11.8666L11.5833 2.29993C11.6722 2.21105 11.7778 2.1416 11.9 2.0916C12.0222 2.0416 12.15 2.0166 12.2833 2.0166C12.4056 2.0166 12.5278 2.0416 12.65 2.0916C12.7722 2.1416 12.8833 2.21105 12.9833 2.29993L13.7167 3.03327C13.8167 3.13327 13.8889 3.24438 13.9333 3.3666C13.9778 3.48882 14 3.61105 14 3.73327C14 3.85549 13.975 3.98049 13.925 4.10827C13.875 4.23605 13.8056 4.34438 13.7167 4.43327L4.13333 13.9999H2ZM11.2333 4.78327L10.8667 4.4166L11.6 5.14994L11.2333 4.78327Z" fill="#404040"/>
</svg>
