<svg width="69" height="69" viewBox="0 0 69 69" fill="none" xmlns="http://www.w3.org/2000/svg">
<rect width="68.0553" height="68.0553" rx="10" fill="url(#paint0_linear_291_4164)"/>
<path d="M33.8821 56.7281C46.5002 56.7281 56.7291 46.4992 56.7291 33.8811C56.7291 21.2631 46.5002 11.0342 33.8821 11.0342C21.2641 11.0342 11.0352 21.2631 11.0352 33.8811C11.0352 46.4992 21.2641 56.7281 33.8821 56.7281Z" fill="url(#paint1_linear_291_4164)"/>
<path d="M45.1278 32.7206C45.1278 34.0253 44.9193 35.218 44.5029 36.3002C44.0865 37.3825 43.4979 38.2315 42.737 38.8471C41.9769 39.4628 41.0932 39.771 40.0882 39.771C39.4176 39.771 38.8244 39.6111 38.3083 39.289C37.7923 38.9676 37.4208 38.5435 37.1952 38.0182H36.9774C35.9994 39.1862 34.7541 39.7702 33.2416 39.7702C31.6387 39.7702 30.3757 39.2882 29.4511 38.3241C28.5272 37.3593 28.0652 36.0399 28.0652 34.3644C28.0652 32.4533 28.6724 30.9137 29.886 29.7449C31.0988 28.5769 32.6839 27.9929 34.6406 27.9929C35.4193 27.9929 36.2775 28.0679 37.2145 28.217C38.1515 28.3661 38.9232 28.5453 39.5304 28.7538L39.2183 35.3972C39.2183 36.6556 39.5621 37.2852 40.2504 37.2852C40.8297 37.2852 41.2917 36.8618 41.6362 36.0152C41.98 35.1685 42.1522 34.0616 42.1522 32.6935C42.1522 31.2358 41.8487 29.9473 41.2415 28.8288C40.6351 27.7102 39.7815 26.8574 38.6807 26.268C37.5807 25.6794 36.3238 25.3851 34.911 25.3851C33.0817 25.3851 31.4927 25.7612 30.1432 26.5129C28.7937 27.2645 27.7585 28.3491 27.0386 29.7666C26.3186 31.1841 25.9586 32.821 25.9586 34.6772C25.9586 37.177 26.6261 39.0943 27.9625 40.4299C29.2981 41.7655 31.2339 42.4337 33.77 42.4337C34.7294 42.4337 35.7846 42.3279 36.9349 42.1147C38.0843 41.9023 39.2176 41.5918 40.3307 41.1847V43.7925C38.3925 44.6168 36.242 45.0285 33.8782 45.0285C30.4367 45.0285 27.7539 44.1232 25.8296 42.3117C23.9054 40.501 22.9429 37.9835 22.9429 34.7591C22.9429 32.5228 23.4342 30.4919 24.4168 28.6666C25.3986 26.8419 26.7983 25.4113 28.6145 24.3739C30.4298 23.3372 32.5201 22.8188 34.8839 22.8188C36.8762 22.8188 38.6552 23.2259 40.2226 24.0409C41.7892 24.8567 42.9981 26.0154 43.8494 27.5186C44.7022 29.0219 45.1278 30.7561 45.1278 32.7206ZM31.2177 34.4192C31.2177 36.3296 31.9964 37.2852 33.5545 37.2852C34.3695 37.2852 34.9898 36.9978 35.4154 36.4223C35.841 35.8476 36.0991 34.9129 36.1902 33.6182L36.3671 30.6163C35.9052 30.5167 35.3845 30.4665 34.8044 30.4665C33.6727 30.4665 32.792 30.8195 32.1625 31.5263C31.5321 32.2323 31.2177 33.1964 31.2177 34.4192Z" fill="white"/>
<defs>
<linearGradient id="paint0_linear_291_4164" x1="-2.09186" y1="3.21358e-07" x2="47.4965" y2="79.7163" gradientUnits="userSpaceOnUse">
<stop stop-color="white"/>
<stop offset="1" stop-color="#BFBFBF"/>
</linearGradient>
<linearGradient id="paint1_linear_291_4164" x1="25.5891" y1="58.2262" x2="41.5091" y2="11.4932" gradientUnits="userSpaceOnUse">
<stop stop-color="#00D1FF"/>
<stop offset="1" stop-color="#005E87"/>
</linearGradient>
</defs>
</svg>
