<svg width="24" height="24" viewBox="0 0 24 24" fill="none" xmlns="http://www.w3.org/2000/svg">
<path d="M11.0005 20C10.7171 20 10.4796 19.9042 10.288 19.7125C10.0963 19.5208 10.0005 19.2833 10.0005 19V13L4.02546 5.375C3.79212 5.09167 3.75879 4.79167 3.92546 4.475C4.09212 4.15833 4.35046 4 4.70046 4H19.3005C19.6505 4 19.9088 4.15833 20.0755 4.475C20.2421 4.79167 20.2088 5.09167 19.9755 5.375L14.0005 13V19C14.0005 19.2833 13.9046 19.5208 13.713 19.7125C13.5213 19.9042 13.2838 20 13.0005 20H11.0005ZM12.0005 13.1L18.0005 5.5H6.00046L12.0005 13.1Z" fill="#404040"/>
</svg>
