<svg width="69" height="69" viewBox="0 0 69 69" fill="none" xmlns="http://www.w3.org/2000/svg">
<rect width="68.0553" height="68.0553" rx="10" fill="url(#paint0_linear_291_4173)"/>
<path d="M33.8821 56.7281C46.5002 56.7281 56.7291 46.4992 56.7291 33.8811C56.7291 21.2631 46.5002 11.0342 33.8821 11.0342C21.2641 11.0342 11.0352 21.2631 11.0352 33.8811C11.0352 46.4992 21.2641 56.7281 33.8821 56.7281Z" fill="url(#paint1_linear_291_4173)"/>
<g clip-path="url(#clip0_291_4173)">
<path d="M27.9 45.1001C27.15 45.1001 26.5208 44.8459 26.0125 44.3376C25.5042 43.8293 25.25 43.2001 25.25 42.4501V32.2501C25.25 31.5001 25.5042 30.8709 26.0125 30.3626C26.5208 29.8543 27.15 29.6001 27.9 29.6001H28.3V27.6001C28.3 26.0001 28.8558 24.6418 29.9673 23.5251C31.0788 22.4084 32.423 21.8501 34 21.8501C35.577 21.8501 36.9213 22.4084 38.0328 23.5251C39.1442 24.6418 39.7 26.0001 39.7 27.6001V29.6001H40.1C40.85 29.6001 41.4792 29.8543 41.9875 30.3626C42.4958 30.8709 42.75 31.5001 42.75 32.2501V42.4501C42.75 43.2001 42.4958 43.8293 41.9875 44.3376C41.4792 44.8459 40.85 45.1001 40.1 45.1001H27.9ZM27.9 42.4501H40.1V32.2501H27.9V42.4501ZM34.004 39.7501C34.6513 39.7501 35.2042 39.5196 35.6625 39.0586C36.1208 38.5976 36.35 38.0435 36.35 37.3961C36.35 36.7488 36.1195 36.1959 35.6585 35.7376C35.1975 35.2793 34.6434 35.0501 33.996 35.0501C33.3487 35.0501 32.7958 35.2806 32.3375 35.7416C31.8792 36.2026 31.65 36.7567 31.65 37.4041C31.65 38.0514 31.8805 38.6043 32.3415 39.0626C32.8025 39.5209 33.3566 39.7501 34.004 39.7501ZM30.95 29.6001H37.05V27.6001C37.05 26.7501 36.7532 26.0209 36.1596 25.4126C35.5659 24.8043 34.8451 24.5001 33.9971 24.5001C33.149 24.5001 32.4292 24.8043 31.8375 25.4126C31.2458 26.0209 30.95 26.7501 30.95 27.6001V29.6001Z" fill="white"/>
</g>
<defs>
<linearGradient id="paint0_linear_291_4173" x1="-2.09186" y1="3.21358e-07" x2="47.4965" y2="79.7163" gradientUnits="userSpaceOnUse">
<stop stop-color="white"/>
<stop offset="1" stop-color="#BFBFBF"/>
</linearGradient>
<linearGradient id="paint1_linear_291_4173" x1="25.5891" y1="58.2262" x2="41.5091" y2="11.4932" gradientUnits="userSpaceOnUse">
<stop stop-color="#764E00"/>
<stop offset="1" stop-color="#EA3E08"/>
</linearGradient>
<clipPath id="clip0_291_4173">
<rect width="24" height="24" fill="white" transform="translate(22 22)"/>
</clipPath>
</defs>
</svg>
