<svg width="18" height="18" viewBox="0 0 18 18" fill="none" xmlns="http://www.w3.org/2000/svg">
<path d="M3.375 16.5C3.06563 16.5 2.80078 16.3898 2.58047 16.1695C2.36016 15.9492 2.25 15.6844 2.25 15.375V6.31875C2.0375 6.24375 1.85938 6.11007 1.71563 5.91773C1.57188 5.72538 1.5 5.5028 1.5 5.25V2.625C1.5 2.31563 1.61016 2.05078 1.83047 1.83047C2.05078 1.61016 2.31563 1.5 2.625 1.5H15.375C15.6844 1.5 15.9492 1.61016 16.1695 1.83047C16.3898 2.05078 16.5 2.31563 16.5 2.625V5.25C16.5 5.5028 16.4281 5.72538 16.2844 5.91773C16.1406 6.11007 15.9625 6.24375 15.75 6.31875V15.375C15.75 15.6844 15.6398 15.9492 15.4195 16.1695C15.1992 16.3898 14.9344 16.5 14.625 16.5H3.375ZM3.375 6.375V15.375H14.625V6.375H3.375ZM2.625 5.25H15.375V2.625H2.625V5.25ZM6.75 10.125H11.25V9H6.75V10.125Z" fill="white"/>
</svg>
