<svg width="16" height="16" viewBox="0 0 16 16" fill="none" xmlns="http://www.w3.org/2000/svg">
<path d="M2.375 15.5C2.06563 15.5 1.80078 15.3898 1.58047 15.1695C1.36016 14.9492 1.25 14.6844 1.25 14.375V5.31875C1.0375 5.24375 0.859375 5.11007 0.715625 4.91773C0.571875 4.72538 0.5 4.5028 0.5 4.25V1.625C0.5 1.31563 0.610156 1.05078 0.830469 0.830469C1.05078 0.610156 1.31563 0.5 1.625 0.5H14.375C14.6844 0.5 14.9492 0.610156 15.1695 0.830469C15.3898 1.05078 15.5 1.31563 15.5 1.625V4.25C15.5 4.5028 15.4281 4.72538 15.2844 4.91773C15.1406 5.11007 14.9625 5.24375 14.75 5.31875V14.375C14.75 14.6844 14.6398 14.9492 14.4195 15.1695C14.1992 15.3898 13.9344 15.5 13.625 15.5H2.375ZM2.375 5.375V14.375H13.625V5.375H2.375ZM1.625 4.25H14.375V1.625H1.625V4.25ZM5.75 9.125H10.25V8H5.75V9.125Z" fill="#404040"/>
</svg>
