<svg width="16" height="16" viewBox="0 0 16 16" fill="none" xmlns="http://www.w3.org/2000/svg">
<path d="M5 11.2333C5.13333 11.2333 5.25 11.1833 5.35 11.0833C5.45 10.9833 5.5 10.8667 5.5 10.7333C5.5 10.6 5.45 10.4833 5.35 10.3833C5.25 10.2833 5.13333 10.2333 5 10.2333C4.86667 10.2333 4.75 10.2833 4.65 10.3833C4.55 10.4833 4.5 10.6 4.5 10.7333C4.5 10.8667 4.55 10.9833 4.65 11.0833C4.75 11.1833 4.86667 11.2333 5 11.2333ZM5 8.5C5.13333 8.5 5.25 8.45 5.35 8.35C5.45 8.25 5.5 8.13333 5.5 8C5.5 7.86667 5.45 7.75 5.35 7.65C5.25 7.55 5.13333 7.5 5 7.5C4.86667 7.5 4.75 7.55 4.65 7.65C4.55 7.75 4.5 7.86667 4.5 8C4.5 8.13333 4.55 8.25 4.65 8.35C4.75 8.45 4.86667 8.5 5 8.5ZM5 5.76667C5.13333 5.76667 5.25 5.71667 5.35 5.61667C5.45 5.51667 5.5 5.4 5.5 5.26667C5.5 5.13333 5.45 5.01667 5.35 4.91667C5.25 4.81667 5.13333 4.76667 5 4.76667C4.86667 4.76667 4.75 4.81667 4.65 4.91667C4.55 5.01667 4.5 5.13333 4.5 5.26667C4.5 5.4 4.55 5.51667 4.65 5.61667C4.75 5.71667 4.86667 5.76667 5 5.76667ZM7.2 11.2333H11.2667V10.2333H7.2V11.2333ZM7.2 8.5H11.2667V7.5H7.2V8.5ZM7.2 5.76667H11.2667V4.76667H7.2V5.76667ZM3 14C2.73333 14 2.5 13.9 2.3 13.7C2.1 13.5 2 13.2667 2 13V3C2 2.73333 2.1 2.5 2.3 2.3C2.5 2.1 2.73333 2 3 2H13C13.2667 2 13.5 2.1 13.7 2.3C13.9 2.5 14 2.73333 14 3V13C14 13.2667 13.9 13.5 13.7 13.7C13.5 13.9 13.2667 14 13 14H3ZM3 13H13V3H3V13Z" fill="white"/>
</svg>
