<svg width="12" height="12" viewBox="0 0 12 12" fill="none" xmlns="http://www.w3.org/2000/svg">
<path d="M3 9.23333C3.13333 9.23333 3.25 9.18333 3.35 9.08333C3.45 8.98333 3.5 8.86667 3.5 8.73333C3.5 8.6 3.45 8.48333 3.35 8.38333C3.25 8.28333 3.13333 8.23333 3 8.23333C2.86667 8.23333 2.75 8.28333 2.65 8.38333C2.55 8.48333 2.5 8.6 2.5 8.73333C2.5 8.86667 2.55 8.98333 2.65 9.08333C2.75 9.18333 2.86667 9.23333 3 9.23333ZM3 6.5C3.13333 6.5 3.25 6.45 3.35 6.35C3.45 6.25 3.5 6.13333 3.5 6C3.5 5.86667 3.45 5.75 3.35 5.65C3.25 5.55 3.13333 5.5 3 5.5C2.86667 5.5 2.75 5.55 2.65 5.65C2.55 5.75 2.5 5.86667 2.5 6C2.5 6.13333 2.55 6.25 2.65 6.35C2.75 6.45 2.86667 6.5 3 6.5ZM3 3.76667C3.13333 3.76667 3.25 3.71667 3.35 3.61667C3.45 3.51667 3.5 3.4 3.5 3.26667C3.5 3.13333 3.45 3.01667 3.35 2.91667C3.25 2.81667 3.13333 2.76667 3 2.76667C2.86667 2.76667 2.75 2.81667 2.65 2.91667C2.55 3.01667 2.5 3.13333 2.5 3.26667C2.5 3.4 2.55 3.51667 2.65 3.61667C2.75 3.71667 2.86667 3.76667 3 3.76667ZM5.2 9.23333H9.26667V8.23333H5.2V9.23333ZM5.2 6.5H9.26667V5.5H5.2V6.5ZM5.2 3.76667H9.26667V2.76667H5.2V3.76667ZM1 12C0.733333 12 0.5 11.9 0.3 11.7C0.1 11.5 0 11.2667 0 11V1C0 0.733333 0.1 0.5 0.3 0.3C0.5 0.1 0.733333 0 1 0H11C11.2667 0 11.5 0.1 11.7 0.3C11.9 0.5 12 0.733333 12 1V11C12 11.2667 11.9 11.5 11.7 11.7C11.5 11.9 11.2667 12 11 12H1ZM1 11H11V1H1V11Z" fill="black"/>
</svg>
