<svg width="16" height="16" viewBox="0 0 16 16" fill="none" xmlns="http://www.w3.org/2000/svg">
<path d="M3.7002 14.6668C3.21408 14.6668 2.80089 14.4967 2.46061 14.1564C2.12033 13.8161 1.9502 13.4029 1.9502 12.9168V10.8335H4.06686V1.3335L5.06353 2.3335L6.06019 1.3335L7.05686 2.3335L8.05353 1.3335L9.05019 2.3335L10.0502 1.3335L11.0502 2.3335L12.0502 1.3335L13.0502 2.3335L14.0502 1.3335V12.9168C14.0502 13.4029 13.8801 13.8161 13.5398 14.1564C13.1995 14.4967 12.7863 14.6668 12.3002 14.6668H3.7002ZM12.3002 13.6668C12.5224 13.6668 12.703 13.5974 12.8419 13.4585C12.9808 13.3196 13.0502 13.1391 13.0502 12.9168V3.00016H5.06686V10.8335H11.5502V12.9168C11.5502 13.1391 11.6196 13.3196 11.7585 13.4585C11.8974 13.5974 12.078 13.6668 12.3002 13.6668ZM5.9502 5.6335V4.6335H9.95019V5.6335H5.9502ZM5.9502 7.86683V6.86683H9.95019V7.86683H5.9502ZM11.5002 5.6335C11.3669 5.6335 11.2502 5.5835 11.1502 5.4835C11.0502 5.3835 11.0002 5.26683 11.0002 5.1335C11.0002 5.00016 11.0502 4.8835 11.1502 4.7835C11.2502 4.6835 11.3669 4.6335 11.5002 4.6335C11.6335 4.6335 11.7502 4.6835 11.8502 4.7835C11.9502 4.8835 12.0002 5.00016 12.0002 5.1335C12.0002 5.26683 11.9502 5.3835 11.8502 5.4835C11.7502 5.5835 11.6335 5.6335 11.5002 5.6335ZM11.5002 7.7835C11.3669 7.7835 11.2502 7.7335 11.1502 7.6335C11.0502 7.5335 11.0002 7.41683 11.0002 7.2835C11.0002 7.15016 11.0502 7.0335 11.1502 6.9335C11.2502 6.8335 11.3669 6.7835 11.5002 6.7835C11.6335 6.7835 11.7502 6.8335 11.8502 6.9335C11.9502 7.0335 12.0002 7.15016 12.0002 7.2835C12.0002 7.41683 11.9502 7.5335 11.8502 7.6335C11.7502 7.7335 11.6335 7.7835 11.5002 7.7835ZM3.68353 13.6668H10.5502V11.8335H2.9502V12.9168C2.9502 13.1391 3.02047 13.3196 3.16103 13.4585C3.30158 13.5974 3.47575 13.6668 3.68353 13.6668Z" fill="black"/>
</svg>
