<svg width="14" height="14" viewBox="0 0 14 14" fill="none" xmlns="http://www.w3.org/2000/svg">
<path d="M2.7002 13.6666C2.21408 13.6666 1.80089 13.4964 1.46061 13.1562C1.12033 12.8159 0.950195 12.4027 0.950195 11.9166V9.83325H3.06686V0.333252L4.06353 1.33325L5.06019 0.333252L6.05686 1.33325L7.05353 0.333252L8.05019 1.33325L9.05019 0.333252L10.0502 1.33325L11.0502 0.333252L12.0502 1.33325L13.0502 0.333252V11.9166C13.0502 12.4027 12.8801 12.8159 12.5398 13.1562C12.1995 13.4964 11.7863 13.6666 11.3002 13.6666H2.7002ZM11.3002 12.6666C11.5224 12.6666 11.703 12.5971 11.8419 12.4583C11.9808 12.3194 12.0502 12.1388 12.0502 11.9166V1.99992H4.06686V9.83325H10.5502V11.9166C10.5502 12.1388 10.6196 12.3194 10.7585 12.4583C10.8974 12.5971 11.078 12.6666 11.3002 12.6666ZM4.9502 4.63325V3.63325H8.95019V4.63325H4.9502ZM4.9502 6.86658V5.86658H8.95019V6.86658H4.9502ZM10.5002 4.63325C10.3669 4.63325 10.2502 4.58325 10.1502 4.48325C10.0502 4.38325 10.0002 4.26659 10.0002 4.13325C10.0002 3.99992 10.0502 3.88325 10.1502 3.78325C10.2502 3.68325 10.3669 3.63325 10.5002 3.63325C10.6335 3.63325 10.7502 3.68325 10.8502 3.78325C10.9502 3.88325 11.0002 3.99992 11.0002 4.13325C11.0002 4.26659 10.9502 4.38325 10.8502 4.48325C10.7502 4.58325 10.6335 4.63325 10.5002 4.63325ZM10.5002 6.78325C10.3669 6.78325 10.2502 6.73325 10.1502 6.63325C10.0502 6.53325 10.0002 6.41658 10.0002 6.28325C10.0002 6.14992 10.0502 6.03325 10.1502 5.93325C10.2502 5.83325 10.3669 5.78325 10.5002 5.78325C10.6335 5.78325 10.7502 5.83325 10.8502 5.93325C10.9502 6.03325 11.0002 6.14992 11.0002 6.28325C11.0002 6.41658 10.9502 6.53325 10.8502 6.63325C10.7502 6.73325 10.6335 6.78325 10.5002 6.78325ZM2.68353 12.6666H9.55019V10.8333H1.9502V11.9166C1.9502 12.1388 2.02047 12.3194 2.16103 12.4583C2.30158 12.5971 2.47575 12.6666 2.68353 12.6666Z" fill="white"/>
</svg>
