<svg width="18" height="18" viewBox="0 0 18 18" fill="none" xmlns="http://www.w3.org/2000/svg">
<path d="M16.4393 18L10.3863 11.7C9.90592 12.1 9.35347 12.4167 8.72896 12.65C8.10445 12.8833 7.43991 13 6.73533 13C4.98991 13 3.5127 12.3708 2.30371 11.1125C1.09473 9.85417 0.490234 8.31667 0.490234 6.5C0.490234 4.68333 1.09473 3.14583 2.30371 1.8875C3.5127 0.629167 4.98991 0 6.73533 0C8.48076 0 9.95796 0.629167 11.167 1.8875C12.3759 3.14583 12.9804 4.68333 12.9804 6.5C12.9804 7.23333 12.8683 7.925 12.6442 8.575C12.42 9.225 12.1157 9.8 11.7314 10.3L17.7844 16.6L16.4393 18ZM6.73533 11C7.93631 11 8.95715 10.5625 9.79783 9.6875C10.6385 8.8125 11.0589 7.75 11.0589 6.5C11.0589 5.25 10.6385 4.1875 9.79783 3.3125C8.95715 2.4375 7.93631 2 6.73533 2C5.53435 2 4.51352 2.4375 3.67283 3.3125C2.83215 4.1875 2.4118 5.25 2.4118 6.5C2.4118 7.75 2.83215 8.8125 3.67283 9.6875C4.51352 10.5625 5.53435 11 6.73533 11Z" fill="#404040"/>
</svg>
