<svg width="16" height="16" viewBox="0 0 16 16" fill="none" xmlns="http://www.w3.org/2000/svg">
<path d="M10.3333 13.3501L7.66667 10.6834L8.38333 9.96675L10.3333 11.9167L14.3167 7.93341L15.0333 8.65008L10.3333 13.3501ZM14 6.45008H13V3.00008H12V4.50008H4V3.00008H3V13.0001H7.18333V14.0001H3C2.71111 14.0001 2.47222 13.9056 2.28333 13.7167C2.09444 13.5279 2 13.289 2 13.0001V3.00008C2 2.71119 2.09444 2.4723 2.28333 2.28341C2.47222 2.09453 2.71111 2.00008 3 2.00008H6.36667C6.44444 1.61119 6.63611 1.29175 6.94167 1.04175C7.24722 0.791748 7.6 0.666748 8 0.666748C8.4 0.666748 8.75278 0.791748 9.05833 1.04175C9.36389 1.29175 9.55556 1.61119 9.63333 2.00008H13C13.2889 2.00008 13.5278 2.09453 13.7167 2.28341C13.9056 2.4723 14 2.71119 14 3.00008V6.45008ZM8 3.00008C8.18889 3.00008 8.34722 2.93619 8.475 2.80841C8.60278 2.68064 8.66667 2.5223 8.66667 2.33341C8.66667 2.14453 8.60278 1.98619 8.475 1.85841C8.34722 1.73064 8.18889 1.66675 8 1.66675C7.81111 1.66675 7.65278 1.73064 7.525 1.85841C7.39722 1.98619 7.33333 2.14453 7.33333 2.33341C7.33333 2.5223 7.39722 2.68064 7.525 2.80841C7.65278 2.93619 7.81111 3.00008 8 3.00008Z" fill="white"/>
</svg>
