<svg width="16" height="16" viewBox="0 0 16 16" fill="none" xmlns="http://www.w3.org/2000/svg">
<path d="M10.3333 13.35L7.66667 10.6833L8.38333 9.96667L10.3333 11.9167L14.3167 7.93334L15.0333 8.65L10.3333 13.35ZM14 6.45H13V3.00001H12V4.5H4V3.00001H3V13H7.18333V14H3C2.71111 14 2.47222 13.9056 2.28333 13.7167C2.09444 13.5278 2 13.2889 2 13V3.00001C2 2.71112 2.09444 2.47223 2.28333 2.28334C2.47222 2.09445 2.71111 2.00001 3 2.00001H6.36667C6.44444 1.61112 6.63611 1.29167 6.94167 1.04167C7.24722 0.791672 7.6 0.666672 8 0.666672C8.4 0.666672 8.75278 0.791672 9.05833 1.04167C9.36389 1.29167 9.55556 1.61112 9.63333 2.00001H13C13.2889 2.00001 13.5278 2.09445 13.7167 2.28334C13.9056 2.47223 14 2.71112 14 3.00001V6.45ZM8 3.00001C8.18889 3.00001 8.34722 2.93612 8.475 2.80834C8.60278 2.68056 8.66667 2.52223 8.66667 2.33334C8.66667 2.14445 8.60278 1.98612 8.475 1.85834C8.34722 1.73056 8.18889 1.66667 8 1.66667C7.81111 1.66667 7.65278 1.73056 7.525 1.85834C7.39722 1.98612 7.33333 2.14445 7.33333 2.33334C7.33333 2.52223 7.39722 2.68056 7.525 2.80834C7.65278 2.93612 7.81111 3.00001 8 3.00001Z" fill="black"/>
</svg>
