<svg width="69" height="69" viewBox="0 0 69 69" fill="none" xmlns="http://www.w3.org/2000/svg">
<rect width="68.0553" height="68.0553" rx="10" fill="url(#paint0_linear_291_4156)"/>
<path d="M33.8811 56.7281C46.4992 56.7281 56.7281 46.4992 56.7281 33.8811C56.7281 21.2631 46.4992 11.0342 33.8811 11.0342C21.2631 11.0342 11.0342 21.2631 11.0342 33.8811C11.0342 46.4992 21.2631 56.7281 33.8811 56.7281Z" fill="url(#paint1_linear_291_4156)"/>
<path d="M45.0343 38.4901C44.9068 38.287 44.0262 37.8636 44.0262 37.8636C43.6786 37.6914 41.1224 36.4392 40.642 36.2669C40.231 36.1194 39.7652 35.9517 39.3481 36.5736C39.0298 37.0433 38.1013 38.1278 37.7992 38.47C37.5868 38.7111 37.3929 38.7899 36.9225 38.555C36.8437 38.5172 34.5672 37.5431 32.9967 36.1541C31.6039 34.9243 30.6383 33.4033 30.2884 32.8062C30.0728 32.4424 30.2134 32.2724 30.4792 32.0059C30.6429 31.846 31.3644 30.9731 31.4216 30.8897C31.5367 30.7143 31.7414 30.2949 31.7414 30.2949C31.9492 29.8847 31.8202 29.527 31.7036 29.2914C31.6201 29.1292 30.3092 25.972 30.1849 25.6754C29.811 24.784 29.4124 24.7368 29.0308 24.7592C28.8454 24.7724 27.1104 24.7863 26.5581 25.3857L26.4607 25.4885C25.9184 26.0624 24.7891 27.2559 24.7891 29.5664C24.7891 30.0979 24.8748 30.6564 25.0494 31.2759C25.3715 32.3891 26.0011 33.6073 26.8346 34.722C26.8531 34.7459 28.1216 36.5079 28.7565 37.2387C30.7635 39.55 33.0307 41.2572 35.318 42.1509C38.2403 43.2927 39.4879 43.5538 40.1962 43.5538C40.506 43.5538 41.158 43.3962 41.3001 43.383C42.1923 43.3027 44.3151 42.1973 44.7608 40.9551C45.1834 39.7809 45.1919 38.7543 45.0343 38.4901Z" fill="white"/>
<defs>
<linearGradient id="paint0_linear_291_4156" x1="-2.09186" y1="3.21358e-07" x2="47.4965" y2="79.7163" gradientUnits="userSpaceOnUse">
<stop stop-color="white"/>
<stop offset="1" stop-color="#BFBFBF"/>
</linearGradient>
<linearGradient id="paint1_linear_291_4156" x1="25.5881" y1="58.2262" x2="41.5081" y2="11.4932" gradientUnits="userSpaceOnUse">
<stop stop-color="#2FFFB4"/>
<stop offset="1" stop-color="#005720"/>
</linearGradient>
</defs>
</svg>
